<svg width="42" height="25" viewBox="0 0 42 25" fill="none" xmlns="http://www.w3.org/2000/svg">
<path d="M20.8333 0C24.6087 0 27.6693 3.06055 27.6693 6.83594C27.6693 10.6113 24.6087 13.6719 20.8333 13.6719C17.0579 13.6719 13.9974 10.6113 13.9974 6.83594C13.9974 3.06055 17.0579 0 20.8333 0ZM28.2203 14.1514L25.6173 13.5007C22.4162 15.8031 18.5361 15.2893 16.0495 13.5007L13.4465 14.1514C11.3597 14.6731 9.89583 16.548 9.89583 18.699V22.6562C9.89583 23.9506 10.9452 25 12.2396 25H29.4271C30.7215 25 31.7708 23.9506 31.7708 22.6562V18.699C31.7708 16.548 30.307 14.6731 28.2203 14.1514ZM34.375 15.3646C36.8919 15.3646 38.9323 13.3242 38.9323 10.8073C38.9323 8.29036 36.8919 6.25 34.375 6.25C31.8581 6.25 29.8177 8.29036 29.8177 10.8073C29.8177 13.3242 31.8581 15.3646 34.375 15.3646ZM7.29167 15.3646C9.80859 15.3646 11.849 13.3242 11.849 10.8073C11.849 8.29036 9.80859 6.25 7.29167 6.25C4.77474 6.25 2.73438 8.29036 2.73438 10.8073C2.73438 13.3242 4.77474 15.3646 7.29167 15.3646ZM8.85417 22.6562V18.699C8.85417 17.6214 9.15319 16.6023 9.68119 15.7303C7.72884 16.6886 5.55775 16.2972 4.10241 15.2505L2.36706 15.6843C0.975912 16.032 0 17.282 0 18.716V21.3542C0 22.2171 0.699544 22.9167 1.5625 22.9167H8.86517C8.85819 22.83 8.85452 22.7432 8.85417 22.6562ZM39.2996 15.6842L37.5643 15.2504C35.7462 16.5581 33.6001 16.5025 31.9792 15.7203C32.511 16.5946 32.8125 17.6173 32.8125 18.699V22.6562C32.8125 22.7439 32.8081 22.8306 32.8015 22.9167H40.1042C40.9671 22.9167 41.6667 22.2171 41.6667 21.3542V18.716C41.6667 17.282 40.6908 16.032 39.2996 15.6842Z" fill="white"/>
</svg>
