<svg width="39" height="30" viewBox="0 0 39 30" fill="none" xmlns="http://www.w3.org/2000/svg">
<path d="M0 26.7857C0 28.5603 1.43973 30 3.21429 30H35.3571C37.1317 30 38.5714 28.5603 38.5714 26.7857V15H0V26.7857ZM12.8571 22.2321C12.8571 21.7902 13.2188 21.4286 13.6607 21.4286H22.7679C23.2098 21.4286 23.5714 21.7902 23.5714 22.2321V24.9107C23.5714 25.3527 23.2098 25.7143 22.7679 25.7143H13.6607C13.2188 25.7143 12.8571 25.3527 12.8571 24.9107V22.2321ZM4.28571 22.2321C4.28571 21.7902 4.64732 21.4286 5.08929 21.4286H9.91072C10.3527 21.4286 10.7143 21.7902 10.7143 22.2321V24.9107C10.7143 25.3527 10.3527 25.7143 9.91072 25.7143H5.08929C4.64732 25.7143 4.28571 25.3527 4.28571 24.9107V22.2321ZM38.5714 3.21429V6.42857H0V3.21429C0 1.43973 1.43973 0 3.21429 0H35.3571C37.1317 0 38.5714 1.43973 38.5714 3.21429Z" fill="white"/>
</svg>
