<svg width="30" height="30" viewBox="0 0 30 30" fill="none" xmlns="http://www.w3.org/2000/svg">
<path d="M15 0C20.1777 0 24.375 4.1973 24.375 9.375C24.375 14.5527 20.1777 18.75 15 18.75C9.8223 18.75 5.625 14.5527 5.625 9.375C5.625 4.1973 9.8223 0 15 0ZM25.7392 19.5598L21.5607 18.5152C17.1707 21.6728 11.8495 20.9682 8.43926 18.5152L4.26076 19.5598C1.7567 20.1858 0 22.4357 0 25.0169V27.1875C0 28.7408 1.25918 30 2.8125 30H27.1875C28.7408 30 30 28.7408 30 27.1875V25.0169C30 22.4357 28.2433 20.1858 25.7392 19.5598Z" fill="white"/>
</svg>
