<svg width="60" height="60" viewBox="0 0 60 60" fill="none" xmlns="http://www.w3.org/2000/svg">
<path d="M30 0C40.3554 0 48.75 8.39461 48.75 18.75C48.75 29.1054 40.3554 37.5 30 37.5C19.6446 37.5 11.25 29.1054 11.25 18.75C11.25 8.39461 19.6446 0 30 0ZM51.4785 39.1197L43.1215 37.0304C34.3414 43.3457 23.6991 41.9364 16.8785 37.0304L8.52152 39.1197C3.5134 40.3717 0 44.8714 0 50.0338V54.375C0 57.4816 2.51836 60 5.625 60H54.375C57.4816 60 60 57.4816 60 54.375V50.0338C60 44.8714 56.4866 40.3717 51.4785 39.1197Z" fill="#5B58F8"/>
</svg>
