<svg width="30" height="43" viewBox="0 0 30 43" fill="none" xmlns="http://www.w3.org/2000/svg">
<path d="M11.8021 3.17384C10.7703 5.37489 10.1786 8.31851 10.1786 11.25L10.1786 30.3799C9.73962 30.7115 9.37647 31.0887 9.10714 31.4995L9.10714 17.6786C7.08127 27.5118 -6.42215e-07 28.165 -2.81011e-07 36.4284L-2.81002e-07 36.4286L8.57143 36.4286L8.57143 37.5L-2.34168e-07 37.5C-1.56571e-07 39.2752 1.91879 40.7143 4.28571 40.7143L8.57143 40.7143C8.57143 42.2677 9.24321 42.8571 10.1786 42.8571L12.8571 42.8571C13.7935 42.8571 14.4643 42.2666 14.4643 40.7143L15.5357 40.7143C15.5357 42.2677 16.2075 42.8571 17.1429 42.8571L19.8214 42.8571C20.7578 42.8571 21.4286 42.2666 21.4286 40.7143L25.7143 40.7143C28.0812 40.7143 30 39.2752 30 37.5L21.4286 37.5L21.4286 36.4286L30 36.4286L30 36.4284C30 28.165 22.9187 27.5118 20.8929 17.6786L20.8929 31.4996C20.6235 31.0888 20.2604 30.7116 19.8214 30.38L19.8214 11.25C19.8214 8.31851 19.2297 5.37489 18.1979 3.17384C17.2664 1.18648 16.0709 6.92691e-06 15 6.97372e-06C13.9291 7.02053e-06 12.7336 1.18648 11.8021 3.17384ZM17.6786 10.1786C17.6786 10.3207 17.6221 10.4569 17.5217 10.5574C17.4212 10.6579 17.2849 10.7143 17.1429 10.7143L12.8571 10.7143C12.7151 10.7143 12.5788 10.6579 12.4783 10.5574C12.3779 10.4569 12.3214 10.3207 12.3214 10.1786C12.3214 8.04181 17.6786 8.0396 17.6786 10.1786Z" fill="white"/>
</svg>
