<svg width="35" height="30" viewBox="0 0 35 30" fill="none" xmlns="http://www.w3.org/2000/svg">
<path d="M6.42857 30H27.8571V6.42857H25.7143V3.21429C25.7143 1.43906 24.2752 0 22.5 0H11.7857C10.0105 0 8.57143 1.43906 8.57143 3.21429V6.42857H6.42857V30ZM12.8571 4.28571H21.4286V6.42857H12.8571V4.28571ZM34.2857 9.64286V26.7857C34.2857 28.5609 32.8466 30 31.0714 30H30V6.42857H31.0714C32.8466 6.42857 34.2857 7.86763 34.2857 9.64286ZM4.28571 30H3.21429C1.43906 30 0 28.5609 0 26.7857V9.64286C0 7.86763 1.43906 6.42857 3.21429 6.42857H4.28571V30Z" fill="white"/>
</svg>
